Genre:Action | Thriller
Language:Cantonese
IMDb:http://www.imdb.com/title/tt1572168/
Source : DVD5 Retail
Subtitles:English
Encoder: Tony2
..........................................
General
Complete name : Black.Ransom.2010.DVDRIP.XVID.FEEL-FREE
Format : AVI
Format/Info : Audio Video Interleave
File size : 887 MiB
Duration : 1h 32mn
Overall bit rate : 1 340 Kbps
..........................................
Video
Format : xvid
Codec ID : xvid
Duration : 1h 32mn
Bit rate : 1 199 Kbps
Width : 704 pixels
Height : 304 pixels
Display aspect ratio : 2.35:1
Frame rate : 23.976 fps
Resolution : 24 bits
Bits/(Pixel*Frame) : 0.234
Stream size : 794 MiB (89%)
..........................................
Audio
ID : 1
Format : MPEG Audio
Format version : Version 1
Format profile : Layer 3
Codec ID : 55
Codec ID/Hint : MP3
Duration : 1h 32mn
Bit rate mode : Constant
Bit rate : 128 Kbps
Channel(s) : 2 channels
Sampling rate : 48.0 KHz
Resolution : 16 bits
Stream size : 84.7 MiB (10%)
Alignment : Aligned on interleaves
Interleave, duration : 24 ms (0.58 video frame)